<svg width="240" height="192" viewBox="0 0 240 192" fill="none" xmlns="http://www.w3.org/2000/svg">
<g filter="url(#filter0_d_1_145)">
<rect x="8.39172" y="6" width="222.667" height="175.583" rx="4" fill="#29CC6A"/>
</g>
<path d="M108.4 99C108.4 100.008 109.233 100.833 110.25 100.833H112.1V107.25C112.1 108.772 113.34 110 114.875 110C116.411 110 117.65 108.772 117.65 107.25V100.833H121.35V107.25C121.35 108.772 122.59 110 124.125 110C125.661 110 126.9 108.772 126.9 107.25V100.833H128.75C129.768 100.833 130.6 100.008 130.6 99V80.6667H108.4V99ZM103.775 80.6667C102.24 80.6667 101 81.895 101 83.4167V96.25C101 97.7717 102.24 99 103.775 99C105.311 99 106.55 97.7717 106.55 96.25V83.4167C106.55 81.895 105.311 80.6667 103.775 80.6667ZM135.225 80.6667C133.69 80.6667 132.45 81.895 132.45 83.4167V96.25C132.45 97.7717 133.69 99 135.225 99C136.761 99 138 97.7717 138 96.25V83.4167C138 81.895 136.761 80.6667 135.225 80.6667ZM126.031 69.96L128.436 67.5767C128.806 67.21 128.806 66.6417 128.436 66.275C128.066 65.9083 127.492 65.9083 127.122 66.275L124.384 68.9883C122.923 68.255 121.258 67.8333 119.5 67.8333C117.724 67.8333 116.059 68.255 114.579 68.9883L111.823 66.275C111.453 65.9083 110.879 65.9083 110.509 66.275C110.139 66.6417 110.139 67.21 110.509 67.5767L112.933 69.9783C110.195 71.9767 108.4 75.185 108.4 78.8333H130.6C130.6 75.185 128.806 71.9583 126.031 69.96ZM115.8 75.1667H113.95V73.3333H115.8V75.1667ZM125.05 75.1667H123.2V73.3333H125.05V75.1667Z" fill="white"/>
<path d="M124.582 155.083L127.934 145.434H129.566L125.356 156.809H124.191L124.582 155.083ZM121.449 145.434L124.77 155.083L125.184 156.809H124.02L119.816 145.434H121.449ZM132.449 148.356V156.809H130.996V148.356H132.449ZM130.887 146.114C130.887 145.879 130.957 145.681 131.098 145.52C131.244 145.359 131.457 145.278 131.738 145.278C132.014 145.278 132.225 145.359 132.371 145.52C132.522 145.681 132.598 145.879 132.598 146.114C132.598 146.338 132.522 146.53 132.371 146.692C132.225 146.848 132.014 146.926 131.738 146.926C131.457 146.926 131.244 146.848 131.098 146.692C130.957 146.53 130.887 146.338 130.887 146.114ZM138.277 156.965C137.689 156.965 137.155 156.866 136.676 156.668C136.202 156.465 135.793 156.181 135.449 155.817C135.111 155.452 134.85 155.02 134.668 154.52C134.486 154.02 134.395 153.473 134.395 152.879V152.551C134.395 151.864 134.496 151.252 134.699 150.715C134.902 150.174 135.178 149.715 135.527 149.34C135.876 148.965 136.272 148.681 136.715 148.489C137.158 148.296 137.616 148.2 138.09 148.2C138.694 148.2 139.215 148.304 139.652 148.512C140.095 148.721 140.457 149.012 140.738 149.387C141.02 149.757 141.228 150.194 141.363 150.7C141.499 151.2 141.566 151.747 141.566 152.34V152.989H135.254V151.809H140.121V151.7C140.1 151.325 140.022 150.96 139.887 150.606C139.757 150.252 139.548 149.96 139.262 149.731C138.975 149.502 138.585 149.387 138.09 149.387C137.762 149.387 137.46 149.458 137.184 149.598C136.908 149.734 136.671 149.937 136.473 150.208C136.275 150.478 136.121 150.809 136.012 151.2C135.902 151.59 135.848 152.041 135.848 152.551V152.879C135.848 153.28 135.902 153.658 136.012 154.012C136.126 154.361 136.29 154.668 136.504 154.934C136.723 155.2 136.986 155.408 137.293 155.559C137.606 155.71 137.96 155.786 138.356 155.786C138.866 155.786 139.298 155.681 139.652 155.473C140.007 155.265 140.316 154.986 140.582 154.637L141.457 155.333C141.275 155.609 141.043 155.872 140.762 156.122C140.481 156.372 140.134 156.575 139.723 156.731C139.316 156.887 138.835 156.965 138.277 156.965ZM145.395 155.309L147.566 148.356H148.52L148.332 149.739L146.121 156.809H145.191L145.395 155.309ZM143.934 148.356L145.785 155.387L145.918 156.809H144.941L142.488 148.356H143.934ZM150.598 155.333L152.363 148.356H153.801L151.348 156.809H150.379L150.598 155.333ZM148.731 148.356L150.856 155.192L151.098 156.809H150.176L147.902 149.723L147.715 148.356H148.731ZM164.582 155.168V144.809H166.035V156.809H164.707L164.582 155.168ZM158.895 152.676V152.512C158.895 151.866 158.973 151.28 159.129 150.754C159.29 150.223 159.517 149.767 159.809 149.387C160.106 149.007 160.457 148.715 160.863 148.512C161.275 148.304 161.733 148.2 162.238 148.2C162.77 148.2 163.233 148.293 163.629 148.481C164.03 148.663 164.369 148.931 164.645 149.286C164.926 149.635 165.147 150.056 165.309 150.551C165.47 151.046 165.582 151.606 165.645 152.231V152.95C165.587 153.569 165.475 154.127 165.309 154.622C165.147 155.116 164.926 155.538 164.645 155.887C164.369 156.236 164.03 156.504 163.629 156.692C163.228 156.874 162.759 156.965 162.223 156.965C161.728 156.965 161.275 156.859 160.863 156.645C160.457 156.431 160.106 156.132 159.809 155.747C159.517 155.361 159.29 154.908 159.129 154.387C158.973 153.861 158.895 153.291 158.895 152.676ZM160.348 152.512V152.676C160.348 153.098 160.389 153.494 160.473 153.864C160.561 154.234 160.697 154.559 160.879 154.84C161.061 155.122 161.293 155.343 161.574 155.504C161.856 155.661 162.191 155.739 162.582 155.739C163.061 155.739 163.454 155.637 163.762 155.434C164.074 155.231 164.324 154.963 164.512 154.629C164.699 154.296 164.845 153.934 164.949 153.543V151.661C164.887 151.374 164.796 151.098 164.676 150.833C164.561 150.562 164.41 150.322 164.223 150.114C164.04 149.9 163.814 149.731 163.543 149.606C163.277 149.481 162.962 149.418 162.598 149.418C162.202 149.418 161.861 149.502 161.574 149.668C161.293 149.83 161.061 150.054 160.879 150.34C160.697 150.622 160.561 150.95 160.473 151.325C160.389 151.694 160.348 152.09 160.348 152.512ZM171.793 156.965C171.204 156.965 170.671 156.866 170.191 156.668C169.718 156.465 169.309 156.181 168.965 155.817C168.626 155.452 168.366 155.02 168.184 154.52C168.001 154.02 167.91 153.473 167.91 152.879V152.551C167.91 151.864 168.012 151.252 168.215 150.715C168.418 150.174 168.694 149.715 169.043 149.34C169.392 148.965 169.788 148.681 170.231 148.489C170.673 148.296 171.132 148.2 171.606 148.2C172.21 148.2 172.731 148.304 173.168 148.512C173.611 148.721 173.973 149.012 174.254 149.387C174.535 149.757 174.744 150.194 174.879 150.7C175.014 151.2 175.082 151.747 175.082 152.34V152.989H168.77V151.809H173.637V151.7C173.616 151.325 173.538 150.96 173.402 150.606C173.272 150.252 173.064 149.96 172.777 149.731C172.491 149.502 172.1 149.387 171.606 149.387C171.277 149.387 170.975 149.458 170.699 149.598C170.423 149.734 170.186 149.937 169.988 150.208C169.79 150.478 169.637 150.809 169.527 151.2C169.418 151.59 169.363 152.041 169.363 152.551V152.879C169.363 153.28 169.418 153.658 169.527 154.012C169.642 154.361 169.806 154.668 170.02 154.934C170.238 155.2 170.501 155.408 170.809 155.559C171.121 155.71 171.475 155.786 171.871 155.786C172.382 155.786 172.814 155.681 173.168 155.473C173.522 155.265 173.832 154.986 174.098 154.637L174.973 155.333C174.79 155.609 174.559 155.872 174.277 156.122C173.996 156.372 173.65 156.575 173.238 156.731C172.832 156.887 172.35 156.965 171.793 156.965ZM180.309 148.356V149.465H175.738V148.356H180.309ZM177.285 146.301H178.731V154.715C178.731 155.002 178.775 155.218 178.863 155.364C178.952 155.51 179.066 155.606 179.207 155.653C179.348 155.7 179.499 155.723 179.66 155.723C179.78 155.723 179.905 155.713 180.035 155.692C180.171 155.666 180.272 155.645 180.34 155.629L180.348 156.809C180.233 156.846 180.082 156.879 179.895 156.911C179.712 156.947 179.491 156.965 179.231 156.965C178.876 156.965 178.551 156.895 178.254 156.754C177.957 156.614 177.72 156.379 177.543 156.051C177.371 155.718 177.285 155.27 177.285 154.708V146.301ZM186.988 155.364V151.012C186.988 150.679 186.921 150.39 186.785 150.145C186.655 149.895 186.457 149.702 186.191 149.567C185.926 149.431 185.598 149.364 185.207 149.364C184.843 149.364 184.522 149.426 184.246 149.551C183.975 149.676 183.762 149.84 183.606 150.043C183.454 150.247 183.379 150.465 183.379 150.7H181.934C181.934 150.398 182.012 150.098 182.168 149.801C182.324 149.504 182.548 149.236 182.84 148.997C183.137 148.752 183.491 148.559 183.902 148.418C184.319 148.273 184.783 148.2 185.293 148.2C185.908 148.2 186.449 148.304 186.918 148.512C187.392 148.721 187.762 149.036 188.027 149.458C188.298 149.874 188.434 150.398 188.434 151.028V154.965C188.434 155.247 188.457 155.546 188.504 155.864C188.556 156.181 188.632 156.455 188.731 156.684V156.809H187.223C187.15 156.642 187.093 156.421 187.051 156.145C187.009 155.864 186.988 155.603 186.988 155.364ZM187.238 151.684L187.254 152.7H185.793C185.382 152.7 185.014 152.734 184.691 152.801C184.369 152.864 184.098 152.96 183.879 153.09C183.66 153.221 183.494 153.385 183.379 153.583C183.264 153.775 183.207 154.002 183.207 154.262C183.207 154.528 183.267 154.77 183.387 154.989C183.507 155.208 183.686 155.382 183.926 155.512C184.171 155.637 184.47 155.7 184.824 155.7C185.267 155.7 185.658 155.606 185.996 155.418C186.335 155.231 186.603 155.002 186.801 154.731C187.004 154.46 187.113 154.197 187.129 153.942L187.746 154.637C187.71 154.856 187.611 155.098 187.449 155.364C187.288 155.629 187.072 155.885 186.801 156.129C186.535 156.369 186.218 156.569 185.848 156.731C185.483 156.887 185.072 156.965 184.613 156.965C184.04 156.965 183.538 156.853 183.106 156.629C182.678 156.405 182.345 156.106 182.106 155.731C181.871 155.351 181.754 154.926 181.754 154.458C181.754 154.004 181.843 153.606 182.02 153.262C182.197 152.913 182.452 152.624 182.785 152.395C183.119 152.161 183.52 151.984 183.988 151.864C184.457 151.744 184.981 151.684 185.559 151.684H187.238ZM192.277 148.356V156.809H190.824V148.356H192.277ZM190.715 146.114C190.715 145.879 190.785 145.681 190.926 145.52C191.072 145.359 191.285 145.278 191.566 145.278C191.843 145.278 192.053 145.359 192.199 145.52C192.35 145.681 192.426 145.879 192.426 146.114C192.426 146.338 192.35 146.53 192.199 146.692C192.053 146.848 191.843 146.926 191.566 146.926C191.285 146.926 191.072 146.848 190.926 146.692C190.785 146.53 190.715 146.338 190.715 146.114ZM196.168 144.809V156.809H194.715V144.809H196.168ZM203.41 154.567C203.41 154.359 203.363 154.166 203.27 153.989C203.181 153.806 202.996 153.642 202.715 153.497C202.439 153.346 202.022 153.215 201.465 153.106C200.996 153.007 200.572 152.89 200.191 152.754C199.816 152.619 199.496 152.455 199.231 152.262C198.97 152.069 198.77 151.843 198.629 151.583C198.488 151.322 198.418 151.017 198.418 150.668C198.418 150.335 198.491 150.02 198.637 149.723C198.788 149.426 198.999 149.163 199.27 148.934C199.546 148.705 199.876 148.525 200.262 148.395C200.647 148.265 201.077 148.2 201.551 148.2C202.228 148.2 202.806 148.319 203.285 148.559C203.764 148.799 204.132 149.119 204.387 149.52C204.642 149.916 204.77 150.356 204.77 150.84H203.324C203.324 150.606 203.254 150.379 203.113 150.161C202.978 149.937 202.777 149.752 202.512 149.606C202.251 149.46 201.931 149.387 201.551 149.387C201.15 149.387 200.824 149.45 200.574 149.575C200.329 149.694 200.15 149.848 200.035 150.036C199.926 150.223 199.871 150.421 199.871 150.629C199.871 150.786 199.897 150.926 199.949 151.051C200.007 151.171 200.106 151.283 200.246 151.387C200.387 151.486 200.585 151.58 200.84 151.668C201.095 151.757 201.421 151.846 201.816 151.934C202.509 152.09 203.079 152.278 203.527 152.497C203.975 152.715 204.309 152.984 204.527 153.301C204.746 153.619 204.856 154.004 204.856 154.458C204.856 154.827 204.777 155.166 204.621 155.473C204.47 155.78 204.249 156.046 203.957 156.27C203.671 156.489 203.327 156.661 202.926 156.786C202.53 156.905 202.085 156.965 201.59 156.965C200.845 156.965 200.215 156.833 199.699 156.567C199.184 156.301 198.793 155.958 198.527 155.536C198.262 155.114 198.129 154.668 198.129 154.2H199.582C199.603 154.596 199.718 154.911 199.926 155.145C200.134 155.374 200.389 155.538 200.691 155.637C200.994 155.731 201.293 155.778 201.59 155.778C201.986 155.778 202.316 155.726 202.582 155.622C202.853 155.517 203.059 155.374 203.199 155.192C203.34 155.01 203.41 154.801 203.41 154.567Z" fill="white"/>
<path d="M119.59 158.372H205.645V159.153H119.59V158.372Z" fill="white"/>
<a href="https://www.android.com/">
<rect fill="black" fill-opacity="0" x="20.9375" y="0.125" width="86.0547" height="18.75"/>
</a>
<path fill-rule="evenodd" clip-rule="evenodd" d="M214.238 151.809L209.945 147.516C209.555 147.126 209.555 146.492 209.945 146.102C210.336 145.711 210.969 145.711 211.36 146.102L216.36 151.102C216.75 151.492 216.75 152.126 216.36 152.516L211.36 157.516C210.969 157.907 210.336 157.907 209.945 157.516C209.555 157.126 209.555 156.492 209.945 156.102L214.238 151.809Z" fill="white"/>
<defs>
<filter id="filter0_d_1_145" x="0.391724" y="0" width="238.667" height="191.583" filterUnits="userSpaceOnUse" color-interpolation-filters="sRGB">
<feFlood flood-opacity="0" result="BackgroundImageFix"/>
<feColorMatrix in="SourceAlpha" type="matrix" values="0 0 0 0 0 0 0 0 0 0 0 0 0 0 0 0 0 0 127 0" result="hardAlpha"/>
<feOffset dy="2"/>
<feGaussianBlur stdDeviation="4"/>
<feColorMatrix type="matrix" values="0 0 0 0 0.160784 0 0 0 0 0.215686 0 0 0 0 0.270588 0 0 0 0.15 0"/>
<feBlend mode="normal" in2="BackgroundImageFix" result="effect1_dropShadow_1_145"/>
<feBlend mode="normal" in="SourceGraphic" in2="effect1_dropShadow_1_145" result="shape"/>
</filter>
</defs>
</svg>
