<svg width="239" height="192" viewBox="0 0 239 192" fill="none" xmlns="http://www.w3.org/2000/svg">
        <g filter="url(#filter0_d_1_136)">
        <rect x="8" y="6" width="222.667" height="175.583" rx="4" fill="white"/>
        </g>
        <path d="M124.178 71C114.144 71 106 79.1435 106 89.1775C106 99.2115 114.144 107.355 124.178 107.355C134.212 107.355 142.355 99.2115 142.355 89.1775C142.355 79.1435 134.212 71 124.178 71ZM137.738 83.9424L132.685 86.0328C131.758 83.5607 129.813 81.5975 127.322 80.6886L129.413 75.6353C133.23 77.0895 136.266 80.1251 137.738 83.9424ZM124.178 94.6308C121.16 94.6308 118.724 92.195 118.724 89.1775C118.724 86.1601 121.16 83.7243 124.178 83.7243C127.195 83.7243 129.631 86.1601 129.631 89.1775C129.631 92.195 127.195 94.6308 124.178 94.6308ZM118.961 75.6171L121.087 80.6705C118.579 81.5793 116.598 83.5607 115.67 86.0692L110.617 83.9606C112.089 80.1251 115.125 77.0895 118.961 75.6171ZM110.617 94.3945L115.67 92.3041C116.598 94.8126 118.561 96.7758 121.069 97.6846L118.942 102.738C115.125 101.266 112.089 98.23 110.617 94.3945ZM129.413 102.738L127.322 97.6846C129.813 96.7576 131.776 94.7944 132.685 92.2859L137.738 94.4127C136.266 98.23 133.23 101.266 129.413 102.738Z" fill="#A9ACAC"/>
        <path fill-rule="evenodd" clip-rule="evenodd" d="M210.238 151.809L205.945 147.516C205.555 147.126 205.555 146.492 205.945 146.102C206.336 145.711 206.969 145.711 207.359 146.102L212.359 151.102C212.75 151.492 212.75 152.126 212.359 152.516L207.359 157.516C206.969 157.907 206.336 157.907 205.945 157.516C205.555 157.126 205.555 156.492 205.945 156.102L210.238 151.809Z" fill="#29CC6A"/>
        <defs>
        <filter id="filter0_d_1_136" x="0" y="0" width="238.667" height="191.583" filterUnits="userSpaceOnUse" color-interpolation-filters="sRGB">
        <feFlood flood-opacity="0" result="BackgroundImageFix"/>
        <feColorMatrix in="SourceAlpha" type="matrix" values="0 0 0 0 0 0 0 0 0 0 0 0 0 0 0 0 0 0 127 0" result="hardAlpha"/>
        <feOffset dy="2"/>
        <feGaussianBlur stdDeviation="4"/>
        <feColorMatrix type="matrix" values="0 0 0 0 0.160784 0 0 0 0 0.215686 0 0 0 0 0.270588 0 0 0 0.15 0"/>
        <feBlend mode="normal" in2="BackgroundImageFix" result="effect1_dropShadow_1_136"/>
        <feBlend mode="normal" in="SourceGraphic" in2="effect1_dropShadow_1_136" result="shape"/>
        </filter>
        </defs>
    </svg>