<svg width="22" height="21" viewBox="0 0 22 21" fill="none" xmlns="http://www.w3.org/2000/svg">
<path d="M11 0.583496C4.9225 0.583496 0 5.17468 0 10.8374C0 15.3688 3.1515 19.2114 7.52125 20.5658C8.07125 20.6623 8.27292 20.3453 8.27292 20.0727C8.27292 19.8292 8.26375 19.1841 8.25917 18.3296C5.19933 18.9482 4.554 16.9538 4.554 16.9538C4.0535 15.7704 3.33025 15.4542 3.33025 15.4542C2.33383 14.8185 3.40725 14.8313 3.40725 14.8313C4.51183 14.9031 5.09208 15.8874 5.09208 15.8874C6.07292 17.4554 7.667 17.0025 8.29583 16.7402C8.39483 16.0771 8.67808 15.6251 8.9925 15.3688C6.54958 15.1124 3.982 14.2306 3.982 10.3016C3.982 9.18224 4.40825 8.26794 5.11408 7.55016C4.99033 7.29125 4.61908 6.24877 5.21033 4.8363C5.21033 4.8363 6.13158 4.56115 8.23533 5.88732C9.11533 5.65918 10.0503 5.54638 10.9853 5.54126C11.9203 5.54638 12.8553 5.65918 13.7353 5.88732C15.8253 4.56115 16.7466 4.8363 16.7466 4.8363C17.3378 6.24877 16.9666 7.29125 16.8566 7.55016C17.5578 8.26794 17.9841 9.18224 17.9841 10.3016C17.9841 14.2408 15.4128 15.1081 12.9653 15.3602C13.3503 15.6678 13.7078 16.2967 13.7078 17.2572C13.7078 18.6295 13.6941 19.7318 13.6941 20.065C13.6941 20.3342 13.8866 20.6546 14.4503 20.5521C18.8513 19.2071 22 15.3619 22 10.8374C22 5.17468 17.0748 0.583496 11 0.583496" fill="#29CC6A"/>
</svg>
