<svg width="22" height="21" viewBox="0 0 22 21" fill="none" xmlns="http://www.w3.org/2000/svg">
<path d="M17.875 0.583496H4.125C1.84766 0.583496 0 2.26318 0 4.3335V16.8335C0 18.9038 1.84766 20.5835 4.125 20.5835H17.875C20.1523 20.5835 22 18.9038 22 16.8335V4.3335C22 2.26318 20.1523 0.583496 17.875 0.583496ZM6.80228 17.5607H3.38462L3.36478 8.25778H6.78245L6.80228 17.5607ZM5.00751 7.04083H4.98768C3.87049 7.04083 3.14994 6.34071 3.14994 5.46931C3.14994 4.57689 3.89363 3.9008 5.03065 3.9008C6.16767 3.9008 6.86508 4.57689 6.88822 5.46931C6.88822 6.34071 6.16436 7.04083 5.00751 7.04083ZM18.6517 17.5607H15.2043V12.5066C15.2043 11.2836 14.8474 10.4513 13.6442 10.4513C12.7254 10.4513 12.2296 11.0132 11.9916 11.5571C11.9023 11.7524 11.8792 12.0198 11.8792 12.2932V17.5607H8.41527L8.39543 8.25778H11.8594L11.8792 9.57088C12.3221 8.94888 13.0592 8.06847 14.8242 8.06847C17.0123 8.06847 18.6484 9.36655 18.6484 12.158V17.5607H18.6517Z" fill="#29CC6A"/>
</svg>
