<svg width="22" height="21" viewBox="0 0 22 21" fill="none" xmlns="http://www.w3.org/2000/svg">
<path d="M6.65361 0.61565L11.8042 13.1987H11.9669C12.7903 11.1301 13.4987 9.00793 14.2646 6.90718C15.0305 4.80643 15.7963 2.72712 16.5144 0.626369H21.933C21.8629 0.75627 21.7862 0.881524 21.7032 1.0015C21.3011 1.50525 20.9086 2.07331 20.4778 2.51276C20.3223 2.68365 20.201 2.88951 20.1218 3.11676C20.0426 3.344 20.0073 3.58746 20.0183 3.83108V17.7646C20.0129 17.939 20.0429 18.1125 20.1059 18.2722C20.1689 18.4318 20.2633 18.5734 20.3821 18.6864C20.8033 19.1044 21.2054 19.5438 21.6075 19.9833L22 20.4334H13.604C13.679 20.3088 13.7622 20.1905 13.8529 20.0797C14.2454 19.6617 14.6379 19.233 15.0496 18.8364C15.1894 18.7067 15.3003 18.5423 15.3734 18.3563C15.4465 18.1702 15.4799 17.9676 15.4708 17.7646V7.75391C15.4708 7.28232 15.4708 6.81072 15.5379 6.34984V5.57814H15.4134C15.3368 5.74963 15.2411 5.9104 15.1836 6.09261L10.1097 20.0262C10.0426 20.2191 9.95648 20.4013 9.87032 20.5835H9.75544L3.57093 5.42808H3.4369V15.3531C3.4267 15.8436 3.57261 16.3223 3.84856 16.7035C4.58573 17.7753 5.30374 18.8472 6.03133 19.919C6.12707 20.0583 6.20366 20.2084 6.33769 20.412H0C0.0957354 20.2298 0.16275 20.1012 0.239339 19.994C0.995648 18.8686 1.76153 17.7325 2.52742 16.6178C2.78259 16.2631 2.91815 15.8191 2.91036 15.3638V4.64566C2.92334 4.25752 2.81121 3.8771 2.59443 3.57385C1.98172 2.75927 1.43603 1.88039 0.804178 0.969348C0.737163 0.862167 0.679722 0.744268 0.583986 0.583496L6.65361 0.61565Z" fill="#29CC6A"/>
</svg>
