<svg width="237" height="192" viewBox="0 0 237 192" fill="none" xmlns="http://www.w3.org/2000/svg">
<g filter="url(#filter0_d_1_141)">
<rect x="8.66724" y="6" width="219.724" height="175.583" rx="4" fill="white"/>
</g>
<path d="M114.752 81.152C115.166 80.252 115.4 79.262 115.4 78.2C115.4 74.222 112.178 71 108.2 71C104.222 71 101 74.222 101 78.2C101 82.178 104.222 85.4 108.2 85.4C109.262 85.4 110.252 85.166 111.152 84.752L115.4 89L111.152 93.248C110.252 92.834 109.262 92.6 108.2 92.6C104.222 92.6 101 95.822 101 99.8C101 103.778 104.222 107 108.2 107C112.178 107 115.4 103.778 115.4 99.8C115.4 98.738 115.166 97.748 114.752 96.848L119 92.6L131.6 105.2H137V103.4L114.752 81.152ZM108.2 81.8C106.22 81.8 104.6 80.198 104.6 78.2C104.6 76.202 106.22 74.6 108.2 74.6C110.18 74.6 111.8 76.202 111.8 78.2C111.8 80.198 110.18 81.8 108.2 81.8ZM108.2 103.4C106.22 103.4 104.6 101.798 104.6 99.8C104.6 97.802 106.22 96.2 108.2 96.2C110.18 96.2 111.8 97.802 111.8 99.8C111.8 101.798 110.18 103.4 108.2 103.4ZM119 89.9C118.496 89.9 118.1 89.504 118.1 89C118.1 88.496 118.496 88.1 119 88.1C119.504 88.1 119.9 88.496 119.9 89C119.9 89.504 119.504 89.9 119 89.9ZM131.6 72.8L120.8 83.6L124.4 87.2L137 74.6V72.8H131.6Z" fill="#A9ACAC"/>
<path fill-rule="evenodd" clip-rule="evenodd" d="M210.238 151.809L205.945 147.516C205.555 147.126 205.555 146.492 205.945 146.102C206.336 145.711 206.969 145.711 207.359 146.102L212.359 151.102C212.75 151.492 212.75 152.126 212.359 152.516L207.359 157.516C206.969 157.907 206.336 157.907 205.945 157.516C205.555 157.126 205.555 156.492 205.945 156.102L210.238 151.809Z" fill="#29CC6A"/>
<defs>
<filter id="filter0_d_1_141" x="0.667236" y="0" width="235.724" height="191.583" filterUnits="userSpaceOnUse" color-interpolation-filters="sRGB">
<feFlood flood-opacity="0" result="BackgroundImageFix"/>
<feColorMatrix in="SourceAlpha" type="matrix" values="0 0 0 0 0 0 0 0 0 0 0 0 0 0 0 0 0 0 127 0" result="hardAlpha"/>
<feOffset dy="2"/>
<feGaussianBlur stdDeviation="4"/>
<feColorMatrix type="matrix" values="0 0 0 0 0.160784 0 0 0 0 0.215686 0 0 0 0 0.270588 0 0 0 0.15 0"/>
<feBlend mode="normal" in2="BackgroundImageFix" result="effect1_dropShadow_1_141"/>
<feBlend mode="normal" in="SourceGraphic" in2="effect1_dropShadow_1_141" result="shape"/>
</filter>
</defs>
</svg>
