<svg width="22" height="21" viewBox="0 0 22 21" fill="none" xmlns="http://www.w3.org/2000/svg">
<path d="M21.3926 0.953688C20.5024 1.54339 19.5327 1.95669 18.5238 2.17639C18.0957 1.66946 17.5835 1.26716 17.0176 0.993499C16.4517 0.719833 15.8437 0.58041 15.2301 0.583548C12.7393 0.583548 10.7182 2.84435 10.7182 5.63229C10.7182 6.02813 10.7569 6.41254 10.8337 6.78173C7.08437 6.57144 3.75841 4.56374 1.53176 1.50652C1.1318 2.27369 0.920667 3.15198 0.921034 4.04707C0.921034 5.79786 1.71662 7.34407 2.92899 8.24896C2.21371 8.22479 1.51307 8.00949 0.882245 7.62001V7.68091C0.882245 10.1282 2.43876 12.1702 4.50531 12.6316C4.11751 12.7518 3.71759 12.8119 3.31605 12.8105C3.02555 12.8105 2.74164 12.7791 2.46599 12.7201C3.04123 14.725 4.70668 16.1856 6.68245 16.2246C5.06996 17.634 3.1005 18.3935 1.07702 18.3864C0.712233 18.3864 0.352403 18.3636 0 18.3179C2.07748 19.8038 4.47456 20.5886 6.91931 20.5835C15.2218 20.5835 19.761 12.8924 19.761 6.21938C19.761 6.00053 19.7568 5.78168 19.7494 5.56569C20.629 4.85676 21.3912 3.97182 22 2.95282C21.1912 3.35341 20.3213 3.62555 19.4086 3.74734C20.3438 3.12696 21.0496 2.13316 21.3926 0.953688Z" fill="#29CC6A"/>
</svg>
