<svg width="22" height="21" viewBox="0 0 22 21" fill="none" xmlns="http://www.w3.org/2000/svg">
<path d="M21.9983 19.4793C21.9983 20.0892 21.4553 20.5835 20.7851 20.5835H15.1786V12.8385H18.0387L18.4672 9.82105H15.1786V7.89248C15.1786 7.0188 15.4463 6.42259 16.8246 6.42259H18.5825V3.72227C18.2786 3.68587 17.2354 3.60336 16.0205 3.60336C13.4863 3.60336 11.751 5.01095 11.751 7.59397V9.81943H8.88419V12.8369H11.751V20.5827H1.21408C0.543896 20.5827 0 20.0884 0 19.4785V1.68773C0 1.07777 0.543896 0.583496 1.21408 0.583496H20.7859C21.4561 0.583496 22 1.07777 22 1.68773V19.4793" fill="#29CC6A"/>
</svg>
