    <svg width="32" height="32" viewBox="0 0 32 32" fill="none" xmlns="http://www.w3.org/2000/svg">
        <path d="M6.59778 19.2408C5.94104 20.8981 4.90296 22.5387 3.51282 24.1178C3.07044 24.6202 3.01427 25.3375 3.37317 25.9025C3.64954 26.337 4.11438 26.5846 4.60657 26.5846C4.74524 26.5846 4.88636 26.5651 5.02552 26.5245C7.97181 25.6637 14.8444 22.6061 15.0289 12.8326C15.1002 9.05871 12.34 5.81653 8.74574 5.45129C6.76477 5.25304 4.78284 5.8966 3.31409 7.22424C1.84338 8.55334 0.999634 10.4508 0.999634 12.4308C0.999634 15.734 3.34435 18.6227 6.59778 19.2408V19.2408ZM4.65491 8.70812C5.58899 7.86388 6.76477 7.41417 8.01136 7.41417C8.18763 7.41417 8.36536 7.42296 8.54359 7.44151C11.1105 7.70176 13.0807 10.0533 13.0289 12.7945C12.9015 19.5572 9.23988 22.6017 6.20765 23.9635C7.16712 22.6656 7.92103 21.3307 8.45716 19.9776C8.66614 19.4508 8.63148 18.8619 8.36243 18.3619C8.08069 17.8375 7.57825 17.4654 6.98499 17.3409C4.67542 16.858 2.99963 14.7926 2.99963 12.4308C2.99963 11.0157 3.60315 9.65881 4.65491 8.70812V8.70812Z" fill="#2B2D26"/>
        <path d="M19.3434 25.9025C19.6197 26.337 20.0846 26.5846 20.5768 26.5846C20.7154 26.5846 20.8561 26.5651 20.9957 26.5245C23.942 25.6637 30.8141 22.6061 30.9986 12.8326V12.8321C31.069 9.05822 28.3092 5.81652 24.7145 5.45128C22.7311 5.24962 20.7526 5.89611 19.2838 7.22424C17.8131 8.55334 16.9694 10.4508 16.9694 12.4308C16.9694 15.734 19.3141 18.6227 22.567 19.2408C21.9098 20.8995 20.8717 22.5402 19.4821 24.1183C19.0397 24.6212 18.984 25.338 19.3434 25.9025ZM24.4264 19.9786C24.6353 19.4518 24.6012 18.8629 24.3326 18.3629C24.0504 17.838 23.5484 17.4659 22.9547 17.3409C20.6451 16.858 18.9693 14.7926 18.9693 12.4308C18.9693 11.0152 19.5729 9.65881 20.6246 8.70812C21.5582 7.86388 22.734 7.41417 23.9811 7.41417C24.1568 7.41417 24.3346 7.42296 24.5133 7.44151C27.0797 7.70176 29.0504 10.0533 28.9986 12.7945C28.8717 19.5577 25.2096 22.6017 22.1773 23.9635C23.1363 22.6666 23.8893 21.3317 24.4264 19.9786Z" fill="#2B2D26"/>
    </svg>