    <svg width="32" height="32" viewBox="0 0 32 32" fill="none" xmlns="http://www.w3.org/2000/svg">
        <path d="M25.4019 12.7592C26.0586 11.1019 27.0967 9.46132 28.4868 7.88222C28.9292 7.37978 28.9854 6.66248 28.6265 6.09755C28.3501 5.66298 27.8853 5.41542 27.3931 5.41542C27.2544 5.41542 27.1133 5.43495 26.9741 5.47548C24.0278 6.33632 17.1553 9.39393 16.9707 19.1674C16.8994 22.9413 19.6597 26.1835 23.2539 26.5487C25.2349 26.747 27.2168 26.1034 28.6855 24.7758C30.1562 23.4467 31 21.5492 31 19.5692C31 16.266 28.6553 13.3773 25.4019 12.7592V12.7592ZM27.3447 23.2919C26.4106 24.1361 25.2349 24.5858 23.9883 24.5858C23.812 24.5858 23.6343 24.577 23.456 24.5585C20.8892 24.2982 18.9189 21.9467 18.9707 19.2055C19.0981 12.4428 22.7598 9.39833 25.792 8.03651C24.8325 9.33436 24.0786 10.6693 23.5425 12.0224C23.3335 12.5492 23.3682 13.1381 23.6372 13.6381C23.9189 14.1625 24.4214 14.5346 25.0146 14.6591C27.3242 15.142 29 17.2074 29 19.5692C29 20.9843 28.3965 22.3412 27.3447 23.2919V23.2919Z" fill="#2B2D26"/>
        <path d="M12.6562 6.09754C12.3799 5.66297 11.915 5.41541 11.4228 5.41541C11.2842 5.41541 11.1435 5.43494 11.0039 5.47547C8.05759 6.33631 1.18553 9.39393 1.00096 19.1674V19.1679C0.930645 22.9418 3.6904 26.1835 7.28513 26.5487C9.26853 26.7504 11.247 26.1039 12.7158 24.7758C14.1865 23.4467 15.0302 21.5492 15.0302 19.5692C15.0302 16.266 12.6855 13.3773 9.43258 12.7592C10.0898 11.1005 11.1279 9.45984 12.5175 7.88172C12.9599 7.37879 13.0156 6.66199 12.6562 6.09754ZM7.57323 12.0214C7.36425 12.5482 7.39843 13.1371 7.66698 13.6371C7.94921 14.162 8.45117 14.5341 9.04491 14.6591C11.3545 15.142 13.0303 17.2074 13.0303 19.5692C13.0303 20.9848 12.4267 22.3412 11.375 23.2919C10.4414 24.1361 9.26561 24.5858 8.01854 24.5858C7.84276 24.5858 7.66502 24.577 7.48631 24.5585C4.9199 24.2982 2.9492 21.9467 3.00096 19.2055C3.12791 12.4423 6.79003 9.39833 9.82225 8.03651C8.86326 9.33338 8.11033 10.6683 7.57323 12.0214Z" fill="#2B2D26"/>
    </svg>